HIERARCHY
ROOT hip
{
  OFFSET 0 0 0
  CHANNELS 6 Xposition Yposition Zposition Zrotation Yrotation Xrotation
  JOINT abdomen
  {
    OFFSET 0 20.6881 -0.73152
    CHANNELS 3 Zrotation Xrotation Yrotation
    JOINT chest
    {
      OFFSET 0 11.7043 -0.48768
      CHANNELS 3 Zrotation Xrotation Yrotation
      JOINT neck
      {
        OFFSET 0 22.1894 -2.19456
        CHANNELS 3 Zrotation Xrotation Yrotation
        JOINT head
        {
          OFFSET -0.24384 7.07133 1.2192
          CHANNELS 3 Zrotation Xrotation Yrotation
          JOINT leftEye
          {
            OFFSET 4.14528 8.04674 8.04672
            CHANNELS 3 Zrotation Xrotation Yrotation
            End Site
            {
              OFFSET 1 0 0
            }
          }
          JOINT rightEye
          {
            OFFSET -3.6576 8.04674 8.04672
            CHANNELS 3 Zrotation Xrotation Yrotation
            End Site
            {
              OFFSET 1 0 0
            }
          }
        }
      }
      JOINT rCollar
      {
        OFFSET -2.68224 19.2634 -4.8768
        CHANNELS 3 Zrotation Xrotation Yrotation
        JOINT rShldr
        {
          OFFSET -8.77824 -1.95073 1.46304
          CHANNELS 3 Zrotation Xrotation Yrotation
          JOINT rForeArm
          {
            OFFSET -28.1742 -1.7115 0.48768
            CHANNELS 3 Zrotation Xrotation Yrotation
            JOINT rHand
            {
              OFFSET -22.5879 0.773209 7.07136
              CHANNELS 3 Zrotation Xrotation Yrotation
              JOINT rThumb1
              {
                OFFSET -1.2192 -0.487915 3.41376
                CHANNELS 3 Zrotation Xrotation Yrotation
                JOINT rThumb2
                {
                  OFFSET -3.37035 -0.52449 3.41376
                  CHANNELS 3 Zrotation Xrotation Yrotation
                  End Site
                  {
                    OFFSET -1.78271 -1.18214 1.43049
                  }
                }
              }
              JOINT rIndex1
              {
                OFFSET -7.75947 0.938293 5.60832
                CHANNELS 3 Zrotation Xrotation Yrotation
                JOINT rIndex2
                {
                  OFFSET -2.54057 -0.884171 1.56538
                  CHANNELS 3 Zrotation Xrotation Yrotation
                  End Site
                  {
                    OFFSET -1.62519 -0.234802 1.16502
                  }
                }
              }
              JOINT rMid1
              {
                OFFSET -8.24714 1.18213 3.41376
                CHANNELS 3 Zrotation Xrotation Yrotation
                JOINT rMid2
                {
                  OFFSET -3.10165 -0.590103 1.0647
                  CHANNELS 3 Zrotation Xrotation Yrotation
                  End Site
                  {
                    OFFSET -2.48547 -0.328903 0.83742
                  }
                }
              }
              JOINT rRing1
              {
                OFFSET -8.82822 0.546677 1.51678
                CHANNELS 3 Zrotation Xrotation Yrotation
                JOINT rRing2
                {
                  OFFSET -2.60934 -0.819778 -0.0198488
                  CHANNELS 3 Zrotation Xrotation Yrotation
                  End Site
                  {
                    OFFSET -2.33842 -0.294052 0.168128
                  }
                }
              }
              JOINT rPinky1
              {
                OFFSET -8.27202 -0.0477905 -0.4584
                CHANNELS 3 Zrotation Xrotation Yrotation
                JOINT rPinky2
                {
                  OFFSET -1.82734 -0.647385 -0.700984
                  CHANNELS 3 Zrotation Xrotation Yrotation
                  End Site
                  {
                    OFFSET -1.69225 -0.51767 -0.607171
                  }
                }
              }
            }
          }
        }
      }
      JOINT lCollar
      {
        OFFSET 2.68224 19.2634 -4.8768
        CHANNELS 3 Zrotation Xrotation Yrotation
        JOINT lShldr
        {
          OFFSET 8.77824 -1.95073 1.46304
          CHANNELS 3 Zrotation Xrotation Yrotation
          JOINT lForeArm
          {
            OFFSET 28.1742 -1.7115 0.48768
            CHANNELS 3 Zrotation Xrotation Yrotation
            JOINT lHand
            {
              OFFSET 22.5879 0.773209 7.07136
              CHANNELS 3 Zrotation Xrotation Yrotation
              JOINT lThumb1
              {
                OFFSET 1.2192 -0.487915 3.41376
                CHANNELS 3 Zrotation Xrotation Yrotation
                JOINT lThumb2
                {
                  OFFSET 3.37035 -0.52449 3.41376
                  CHANNELS 3 Zrotation Xrotation Yrotation
                  End Site
                  {
                    OFFSET 1.78271 -1.18214 1.43049
                  }
                }
              }
              JOINT lIndex1
              {
                OFFSET 7.75947 0.938293 5.60832
                CHANNELS 3 Zrotation Xrotation Yrotation
                JOINT lIndex2
                {
                  OFFSET 2.54057 -0.884171 1.56538
                  CHANNELS 3 Zrotation Xrotation Yrotation
                  End Site
                  {
                    OFFSET 1.62519 -0.234802 1.16502
                  }
                }
              }
              JOINT lMid1
              {
                OFFSET 8.24714 1.18213 3.41376
                CHANNELS 3 Zrotation Xrotation Yrotation
                JOINT lMid2
                {
                  OFFSET 3.10165 -0.590103 1.0647
                  CHANNELS 3 Zrotation Xrotation Yrotation
                  End Site
                  {
                    OFFSET 2.48547 -0.328903 0.83742
                  }
                }
              }
              JOINT lRing1
              {
                OFFSET 8.82822 0.546677 1.51678
                CHANNELS 3 Zrotation Xrotation Yrotation
                JOINT lRing2
                {
                  OFFSET 2.60934 -0.819778 -0.0198488
                  CHANNELS 3 Zrotation Xrotation Yrotation
                  End Site
                  {
                    OFFSET 2.33842 -0.294052 0.168128
                  }
                }
              }
              JOINT lPinky1
              {
                OFFSET 8.27202 -0.0477905 -0.4584
                CHANNELS 3 Zrotation Xrotation Yrotation
                JOINT lPinky2
                {
                  OFFSET 1.82734 -0.647385 -0.700984
                  CHANNELS 3 Zrotation Xrotation Yrotation
                  End Site
                  {
                    OFFSET 1.69225 -0.51767 -0.607171
                  }
                }
              }
            }
          }
        }
      }
    }
  }
  JOINT rButtock
  {
    OFFSET -8.77824 4.35084 1.2192
    CHANNELS 3 Zrotation Xrotation Yrotation
    JOINT rThigh
    {
      OFFSET 0 -1.70687 -2.19456
      CHANNELS 3 Zrotation Xrotation Yrotation
      JOINT rShin
      {
        OFFSET 0 -36.8199 0.73152
        CHANNELS 3 Zrotation Xrotation Yrotation
        JOINT rFoot
        {
          OFFSET 0.73152 -45.1104 -5.12064
          CHANNELS 3 Zrotation Xrotation Yrotation
          End Site
          {
            OFFSET -1.1221 -3.69964 12.103
          }
        }
      }
    }
  }
  JOINT lButtock
  {
    OFFSET 8.77824 4.35084 1.2192
    CHANNELS 3 Zrotation Xrotation Yrotation
    JOINT lThigh
    {
      OFFSET 0 -1.70687 -2.19456
      CHANNELS 3 Zrotation Xrotation Yrotation
      JOINT lShin
      {
        OFFSET 0 -36.8199 0.73152
        CHANNELS 3 Zrotation Xrotation Yrotation
        JOINT lFoot
        {
          OFFSET -0.73152 -45.1104 -5.12064
          CHANNELS 3 Zrotation Xrotation Yrotation
          End Site
          {
            OFFSET 1.1221 -3.69964 12.103
          }
        }
      }
    }
  }
}
MOTION
Frames:	4
Frame Time:	0.00833333
-10.6803 83.4577 -22.4036 15.7829 26.0641 69.913 21.8006 53.4179 3.6426 6.96066 -0.464527 3.97752 -7.53289 -0.186789 -11.4952 -5.03897 -36.8422 -24.7205 -0.0 0.0 0.0 -0.0 0.0 0.0 -9.4594e-14 3.31889e-14 2.71593e-13 -4.31006 -34.3547 57.1591 -9.65565 -3.9346 17.1575 -0.16811 12.0266 1.71274 1.23614e-09 -1.49696e-09 -1.56136e-09 2.13606e-09 -2.58559e-09 -2.71114e-09 1.23614e-09 -1.49696e-09 -1.56136e-09 7.73091 5.47488 0.417314 1.23614e-09 -1.49696e-09 -1.56135e-09 2.90554 0.965183 0.102902 1.23615e-09 -1.49696e-09 -1.56136e-09 10.2786 0.731801 0.0259123 1.23613e-09 -1.49696e-09 -1.56135e-09 2.22167 -0.733487 -0.20892 -9.47858e-14 3.32044e-14 2.71385e-13 4.04558 61.4815 -85.3964 22.5307 -16.5754 -45.2486 0.682716 22.7835 -3.38441 1.91137e-09 -3.9127e-09 6.63773e-10 3.31345e-09 -6.70792e-09 1.1035e-09 1.91137e-09 -3.9127e-09 6.63782e-10 -7.73091 5.47488 -0.417314 1.91137e-09 -3.91271e-09 6.63769e-10 -2.90554 0.965183 -0.102902 1.91137e-09 -3.9127e-09 6.63773e-10 -10.2786 0.731801 -0.0259123 1.91138e-09 -3.9127e-09 6.63766e-10 -2.22167 -0.733487 0.20892 -2.03217e-16 0.0 -3.88251e-19 -114.469 -80.7104 -108.52 -0.212679 31.9694 0.515714 -0.333941 4.74425 -13.5167 2.03217e-16 0.0 3.88251e-19 14.3739 -41.1078 -0.287546 0.143436 34.9467 -1.15386 1.84713 14.3574 -7.85512
-10.5905 83.5209 -22.3899 15.8897 26.0208 69.6864 21.7358 53.333 3.49091 6.93335 -0.493548 3.93463 -7.48668 -0.125274 -11.4793 -5.03183 -36.8649 -24.7 -0.0 0.0 0.0 -0.0 0.0 0.0 -3.54101e-13 1.28886e-13 2.71691e-13 -4.61066 -33.3427 56.7528 -9.63631 -3.92321 17.1213 -0.1102 9.74111 1.38068 1.93442e-09 2.97265e-10 -3.51987e-09 3.32472e-09 5.2152e-10 -6.10181e-09 1.93443e-09 2.97263e-10 -3.51988e-09 7.73091 5.47488 0.417314 1.93442e-09 2.97264e-10 -3.51986e-09 2.90554 0.965183 0.102902 1.93443e-09 2.97266e-10 -3.51987e-09 10.2786 0.731801 0.0259123 1.93441e-09 2.97268e-10 -3.51986e-09 2.22167 -0.733487 -0.20892 -3.54313e-13 1.28887e-13 2.71484e-13 3.41284 61.6019 -84.8605 22.4725 -16.4837 -45.0857 0.675982 22.6775 -3.36689 4.24498e-09 -8.80793e-09 1.61608e-09 7.35874e-09 -1.51166e-08 2.70577e-09 4.24498e-09 -8.80793e-09 1.61609e-09 -7.73091 5.47488 -0.417314 4.24498e-09 -8.80795e-09 1.61607e-09 -2.90554 0.965183 -0.102902 4.24497e-09 -8.80793e-09 1.61608e-09 -10.2786 0.731801 -0.0259123 4.24498e-09 -8.80793e-09 1.61607e-09 -2.22167 -0.733487 0.20892 -2.03217e-16 0.0 -3.88251e-19 -111.545 -80.8294 -105.255 -0.208567 31.6166 0.505557 -0.293962 4.89715 -13.6988 2.03217e-16 0.0 3.88251e-19 14.1376 -40.5964 -0.313892 0.138133 34.5225 -1.13882 1.7993 14.455 -7.54692
-10.4978 83.6044 -22.3752 16.0159 25.949 69.4289 21.7135 53.221 3.33681 6.90375 -0.515642 3.89445 -7.45771 -0.058704 -11.47 -4.98113 -36.8615 -24.6692 -0.0 0.0 0.0 -0.0 0.0 0.0 -4.62606e-13 1.87657e-13 2.53301e-13 -4.73436 -32.3566 56.4141 -9.61179 -3.90876 17.0754 -0.0738596 7.73046 1.09315 2.61249e-09 1.12142e-09 -4.55706e-09 4.48626e-09 1.94918e-09 -7.89779e-09 2.6125e-09 1.12142e-09 -4.55708e-09 7.73091 5.47488 0.417314 2.6125e-09 1.12142e-09 -4.55706e-09 2.90554 0.965183 0.102902 2.6125e-09 1.12142e-09 -4.55707e-09 10.2786 0.731801 0.0259123 2.61249e-09 1.12142e-09 -4.55706e-09 2.22167 -0.733487 -0.20892 -4.62817e-13 1.87648e-13 2.53103e-13 2.93495 61.7192 -84.4629 22.4267 -16.4118 -44.9589 0.65801 22.4047 -3.32159 5.23787e-09 -1.11794e-08 2.21212e-09 9.08285e-09 -1.91961e-08 3.71674e-09 5.23787e-09 -1.11794e-08 2.21213e-09 -7.73091 5.47488 -0.417314 5.23788e-09 -1.11794e-08 2.21211e-09 -2.90554 0.965183 -0.102902 5.23787e-09 -1.11794e-08 2.21212e-09 -10.2786 0.731801 -0.0259123 5.23788e-09 -1.11794e-08 2.21211e-09 -2.22167 -0.733487 0.20892 -2.03217e-16 0.0 -3.88251e-19 -108.405 -80.921 -101.81 -0.204427 31.2668 0.496602 -0.272279 4.97045 -13.8866 2.03217e-16 0.0 3.88251e-19 13.9247 -40.1445 -0.378301 0.133806 34.1508 -1.12431 1.75208 14.5357 -7.26785
-10.4095 83.6997 -22.3523 16.1169 25.961 69.134 21.7512 53.0714 3.18031 6.87201 -0.52728 3.85833 -7.45394 0.0240977 -11.4706 -4.86345 -36.8234 -24.6237 -0.0 0.0 0.0 -0.0 0.0 0.0 -3.29988e-13 1.91731e-13 2.16134e-13 -4.67416 -31.3988 56.1451 -9.58004 -3.89005 17.0162 -0.0464679 6.02785 0.851054 3.32633e-09 2.84725e-10 -4.17476e-09 5.72114e-09 5.01635e-10 -7.23701e-09 3.32633e-09 2.84724e-10 -4.17478e-09 7.73091 5.47488 0.417314 3.32633e-09 2.84723e-10 -4.17476e-09 2.90554 0.965183 0.102902 3.32634e-09 2.84725e-10 -4.17477e-09 10.2786 0.731801 0.0259123 3.32632e-09 2.84726e-10 -4.17476e-09 2.22167 -0.733487 -0.20892 -3.30162e-13 1.91723e-13 2.15959e-13 2.70326 61.8332 -84.2913 22.3975 -16.3659 -44.8786 0.623987 21.8729 -3.23391 4.10077e-09 -9.5675e-09 2.25301e-09 7.11947e-09 -1.64426e-08 3.80653e-09 4.10076e-09 -9.5675e-09 2.25302e-09 -7.73091 5.47488 -0.417314 4.10077e-09 -9.56751e-09 2.253e-09 -2.90554 0.965183 -0.102902 4.10076e-09 -9.5675e-09 2.25301e-09 -10.2786 0.731801 -0.0259123 4.10077e-09 -9.5675e-09 2.253e-09 -2.22167 -0.733487 0.20892 -2.03217e-16 0.0 -3.88251e-19 -105.012 -80.9813 -98.1546 -0.200075 30.9167 0.489682 -0.290438 4.88339 -14.1109 2.03217e-16 0.0 3.88251e-19 13.7427 -39.7602 -0.501688 0.130542 33.8409 -1.11004 1.70449 14.6082 -7.01141
